name ./resultDataOpenSim/trcMotMarkerGrf/sub09/grf-03-01.mot
datacolumns 19
datarows 27
range 0.47600000 0.58000000
endheader

                time	     ground_force_vx	     ground_force_vy	     ground_force_vz	     ground_force_px	     ground_force_py	     ground_force_pz	   l_ground_force_vx	   l_ground_force_vy	   l_ground_force_vz	   l_ground_force_px	   l_ground_force_py	   l_ground_force_pz	     ground_torque_x	     ground_torque_y	     ground_torque_z	   l_ground_torque_x	   l_ground_torque_y	   l_ground_torque_z	
          0.47600000	         27.16412912	        454.73026476	        -18.20297852	         -0.71742751	          0.00000000	          0.07351440	          0.00000000	          0.00000000	          0.00000000	          0.00000000	          0.00000000	          0.00000000	          0.00000000	          5.14273000	          0.00000000	          0.00000000	          0.00000000	          0.00000000	
          0.48000000	         28.66381717	        463.44793753	        -17.74534568	         -0.71534113	          0.00000000	          0.07380205	          0.00000000	          0.00000000	          0.00000000	          0.00000000	          0.00000000	          0.00000000	          0.00000000	          5.43335864	          0.00000000	          0.00000000	          0.00000000	          0.00000000	
          0.48400000	         30.27764205	        472.38128832	        -17.43974612	         -0.71324326	          0.00000000	          0.07410468	          0.00000000	          0.00000000	          0.00000000	          0.00000000	          0.00000000	          0.00000000	          0.00000000	          5.71549068	          0.00000000	          0.00000000	          0.00000000	          0.00000000	
          0.48800000	         32.11442662	        481.42376999	        -17.45439012	         -0.71109081	          0.00000000	          0.07444958	          0.00000000	          0.00000000	          0.00000000	          0.00000000	          0.00000000	          0.00000000	          0.00000000	          5.96488624	          0.00000000	          0.00000000	          0.00000000	          0.00000000	
          0.49200000	         34.27677851	        490.45593200	        -17.90862926	         -0.70884230	          0.00000000	          0.07486632	          0.00000000	          0.00000000	          0.00000000	          0.00000000	          0.00000000	          0.00000000	          0.00000000	          6.16242431	          0.00000000	          0.00000000	          0.00000000	          0.00000000	
          0.49600000	         36.82218382	        499.35972947	        -18.85769901	         -0.70646044	          0.00000000	          0.07537007	          0.00000000	          0.00000000	          0.00000000	          0.00000000	          0.00000000	          0.00000000	          0.00000000	          6.29684786	          0.00000000	          0.00000000	          0.00000000	          0.00000000	
          0.50000000	         39.73417076	        508.03946753	        -20.28795166	         -0.70392734	          0.00000000	          0.07596062	          0.00000000	          0.00000000	          0.00000000	          0.00000000	          0.00000000	          0.00000000	          0.00000000	          6.36583686	          0.00000000	          0.00000000	          0.00000000	          0.00000000	
          0.50400000	         42.91573753	        516.44354143	        -22.12438262	         -0.70123462	          0.00000000	          0.07663396	          0.00000000	          0.00000000	          0.00000000	          0.00000000	          0.00000000	          0.00000000	          0.00000000	          6.37521770	          0.00000000	          0.00000000	          0.00000000	          0.00000000	
          0.50800000	         46.21141020	        524.58479668	        -24.25058948	         -0.69838771	          0.00000000	          0.07737015	          0.00000000	          0.00000000	          0.00000000	          0.00000000	          0.00000000	          0.00000000	          0.00000000	          6.33646699	          0.00000000	          0.00000000	          0.00000000	          0.00000000	
          0.51200000	         49.45287057	        532.56248459	        -26.53523048	         -0.69540063	          0.00000000	          0.07814795	          0.00000000	          0.00000000	          0.00000000	          0.00000000	          0.00000000	          0.00000000	          0.00000000	          6.26310510	          0.00000000	          0.00000000	          0.00000000	          0.00000000	
          0.51600000	         52.51261972	        540.57537934	        -28.85744413	         -0.69232446	          0.00000000	          0.07894210	          0.00000000	          0.00000000	          0.00000000	          0.00000000	          0.00000000	          0.00000000	          0.00000000	          6.16697001	          0.00000000	          0.00000000	          0.00000000	          0.00000000	
          0.52000000	         55.34607907	        548.89848874	        -31.12638491	         -0.68923966	          0.00000000	          0.07972571	          0.00000000	          0.00000000	          0.00000000	          0.00000000	          0.00000000	          0.00000000	          0.00000000	          6.05545329	          0.00000000	          0.00000000	          0.00000000	          0.00000000	
          0.52400000	         58.00806816	        557.82442640	        -33.29021924	         -0.68623878	          0.00000000	          0.08046904	          0.00000000	          0.00000000	          0.00000000	          0.00000000	          0.00000000	          0.00000000	          0.00000000	          5.93050230	          0.00000000	          0.00000000	          0.00000000	          0.00000000	
          0.52800000	         60.63943693	        567.60121813	        -35.33262051	         -0.68341400	          0.00000000	          0.08114521	          0.00000000	          0.00000000	          0.00000000	          0.00000000	          0.00000000	          0.00000000	          0.00000000	          5.78966699	          0.00000000	          0.00000000	          0.00000000	          0.00000000	
          0.53200000	         63.43212848	        578.38546322	        -37.25877386	         -0.68084782	          0.00000000	          0.08173219	          0.00000000	          0.00000000	          0.00000000	          0.00000000	          0.00000000	          0.00000000	          0.00000000	          5.62885610	          0.00000000	          0.00000000	          0.00000000	          0.00000000	
          0.53600000	         66.58644356	        590.21564660	        -39.07052739	         -0.67860079	          0.00000000	          0.08221307	          0.00000000	          0.00000000	          0.00000000	          0.00000000	          0.00000000	          0.00000000	          0.00000000	          5.44595323	          0.00000000	          0.00000000	          0.00000000	          0.00000000	
          0.54000000	         70.26901144	        603.00851672	        -40.73634437	         -0.67669777	          0.00000000	          0.08257349	          0.00000000	          0.00000000	          0.00000000	          0.00000000	          0.00000000	          0.00000000	          0.00000000	          5.24417844	          0.00000000	          0.00000000	          0.00000000	          0.00000000	
          0.54400000	         74.57530373	        616.57495891	        -42.17349994	         -0.67513597	          0.00000000	          0.08280133	          0.00000000	          0.00000000	          0.00000000	          0.00000000	          0.00000000	          0.00000000	          0.00000000	          5.03413286	          0.00000000	          0.00000000	          0.00000000	          0.00000000	
          0.54800000	         79.50177260	        630.64411424	        -43.25424877	         -0.67388784	          0.00000000	          0.08289067	          0.00000000	          0.00000000	          0.00000000	          0.00000000	          0.00000000	          0.00000000	          0.00000000	          4.83380610	          0.00000000	          0.00000000	          0.00000000	          0.00000000	
          0.55200000	         84.93966229	        644.88821542	        -43.83540106	         -0.67289664	          0.00000000	          0.08284516	          0.00000000	          0.00000000	          0.00000000	          0.00000000	          0.00000000	          0.00000000	          0.00000000	          4.66635037	          0.00000000	          0.00000000	          0.00000000	          0.00000000	
          0.55600000	         90.70286710	        658.95239877	        -43.80098623	         -0.67208379	          0.00000000	          0.08267673	          0.00000000	          0.00000000	          0.00000000	          0.00000000	          0.00000000	          0.00000000	          0.00000000	          4.55600539	          0.00000000	          0.00000000	          0.00000000	          0.00000000	
          0.56000000	         96.58706909	        672.48828722	        -43.09488082	         -0.67137332	          0.00000000	          0.08240258	          0.00000000	          0.00000000	          0.00000000	          0.00000000	          0.00000000	          0.00000000	          0.00000000	          4.52305505	          0.00000000	          0.00000000	          0.00000000	          0.00000000	
          0.56400000	        102.43696331	        685.18160850	        -41.72764826	         -0.67071723	          0.00000000	          0.08204565	          0.00000000	          0.00000000	          0.00000000	          0.00000000	          0.00000000	          0.00000000	          0.00000000	          4.57898037	          0.00000000	          0.00000000	          0.00000000	          0.00000000	
          0.56800000	        108.18909193	        696.77399508	        -39.77010084	         -0.67010020	          0.00000000	          0.08163286	          0.00000000	          0.00000000	          0.00000000	          0.00000000	          0.00000000	          0.00000000	          0.00000000	          4.72297518	          0.00000000	          0.00000000	          0.00000000	          0.00000000	
          0.57200000	        113.87411642	        707.07557906	        -37.34935126	         -0.66952149	          0.00000000	          0.08118905	          0.00000000	          0.00000000	          0.00000000	          0.00000000	          0.00000000	          0.00000000	          0.00000000	          4.94073329	          0.00000000	          0.00000000	          0.00000000	          0.00000000	
          0.57600000	        119.59082379	        715.95768324	        -34.64176242	         -0.66897884	          0.00000000	          0.08073727	          0.00000000	          0.00000000	          0.00000000	          0.00000000	          0.00000000	          0.00000000	          0.00000000	          5.20595419	          0.00000000	          0.00000000	          0.00000000	          0.00000000	
          0.58000000	        125.47244253	        723.33071924	        -31.85564500	         -0.66847474	          0.00000000	          0.08029840	          0.00000000	          0.00000000	          0.00000000	          0.00000000	          0.00000000	          0.00000000	          0.00000000	          5.48440193	          0.00000000	          0.00000000	          0.00000000	          0.00000000	
